<mxfile host="app.diagrams.net" agent="Mozilla/5.0 (Windows NT 10.0; Win64; x64) AppleWebKit/537.36 (KHTML, like Gecko) Chrome/131.0.0.0 Safari/537.36" version="26.0.9">
  <diagram id="R2lEEEUBdFMjLlhIrx00" name="Page-1">
    <mxGraphModel dx="1434" dy="746" grid="1" gridSize="10" guides="1" tooltips="1" connect="1" arrows="1" fold="1" page="1" pageScale="1" pageWidth="850" pageHeight="1100" math="0" shadow="0" extFonts="Permanent Marker^https://fonts.googleapis.com/css?family=Permanent+Marker">
      <root>
        <mxCell id="0" />
        <mxCell id="1" parent="0" />
        <mxCell id="wSRYckMk192CzZlXgmqv-36" value="Migraine" style="rounded=0;whiteSpace=wrap;html=1;" vertex="1" parent="1">
          <mxGeometry x="80" y="410" width="120" height="60" as="geometry" />
        </mxCell>
        <mxCell id="wSRYckMk192CzZlXgmqv-37" value="Date" style="rounded=0;whiteSpace=wrap;html=1;" vertex="1" parent="1">
          <mxGeometry x="335" y="140" width="120" height="60" as="geometry" />
        </mxCell>
        <mxCell id="wSRYckMk192CzZlXgmqv-38" value="Trigger" style="rounded=0;whiteSpace=wrap;html=1;" vertex="1" parent="1">
          <mxGeometry x="690" y="400" width="120" height="60" as="geometry" />
        </mxCell>
        <mxCell id="wSRYckMk192CzZlXgmqv-40" value="Trigger Food" style="rounded=0;whiteSpace=wrap;html=1;" vertex="1" parent="1">
          <mxGeometry x="680" y="530" width="120" height="60" as="geometry" />
        </mxCell>
        <mxCell id="wSRYckMk192CzZlXgmqv-41" value="stress_level&lt;div&gt;(int 0 to 5)&lt;/div&gt;" style="ellipse;whiteSpace=wrap;html=1;align=center;" vertex="1" parent="1">
          <mxGeometry x="135" y="70" width="100" height="40" as="geometry" />
        </mxCell>
        <mxCell id="wSRYckMk192CzZlXgmqv-42" value="menstrual_cycle_stage&lt;div&gt;(int or null)&lt;/div&gt;" style="ellipse;whiteSpace=wrap;html=1;align=center;" vertex="1" parent="1">
          <mxGeometry x="240" y="50" width="100" height="40" as="geometry" />
        </mxCell>
        <mxCell id="wSRYckMk192CzZlXgmqv-43" value="headache_level&lt;div&gt;(int 0 to 5)&lt;/div&gt;" style="ellipse;whiteSpace=wrap;html=1;align=center;" vertex="1" parent="1">
          <mxGeometry x="345" y="40" width="100" height="40" as="geometry" />
        </mxCell>
        <mxCell id="wSRYckMk192CzZlXgmqv-44" value="nausea_level&lt;div&gt;(int 0 to 5)&lt;/div&gt;" style="ellipse;whiteSpace=wrap;html=1;align=center;" vertex="1" parent="1">
          <mxGeometry x="450" y="50" width="100" height="40" as="geometry" />
        </mxCell>
        <mxCell id="wSRYckMk192CzZlXgmqv-45" value="aura&lt;div&gt;(boolean)&lt;/div&gt;" style="ellipse;whiteSpace=wrap;html=1;align=center;" vertex="1" parent="1">
          <mxGeometry x="560" y="70" width="100" height="40" as="geometry" />
        </mxCell>
        <mxCell id="wSRYckMk192CzZlXgmqv-46" value="vomiting&lt;div&gt;(boolean)&lt;/div&gt;" style="ellipse;whiteSpace=wrap;html=1;align=center;" vertex="1" parent="1">
          <mxGeometry x="580" y="120" width="100" height="40" as="geometry" />
        </mxCell>
        <mxCell id="wSRYckMk192CzZlXgmqv-47" value="dizziness_level&lt;div&gt;(int 0 to 5)&lt;/div&gt;" style="ellipse;whiteSpace=wrap;html=1;align=center;" vertex="1" parent="1">
          <mxGeometry x="110" y="120" width="100" height="40" as="geometry" />
        </mxCell>
        <mxCell id="wSRYckMk192CzZlXgmqv-48" value="fatigue_level&lt;div&gt;(int 0 to 5)&lt;/div&gt;" style="ellipse;whiteSpace=wrap;html=1;align=center;" vertex="1" parent="1">
          <mxGeometry x="110" y="170" width="100" height="40" as="geometry" />
        </mxCell>
        <mxCell id="wSRYckMk192CzZlXgmqv-49" value="sleep_hours&lt;div&gt;(int)&lt;/div&gt;" style="ellipse;whiteSpace=wrap;html=1;align=center;" vertex="1" parent="1">
          <mxGeometry x="580" y="170" width="100" height="40" as="geometry" />
        </mxCell>
        <mxCell id="wSRYckMk192CzZlXgmqv-50" value="light_sensitivity&lt;div&gt;(boolean)&lt;/div&gt;" style="ellipse;whiteSpace=wrap;html=1;align=center;" vertex="1" parent="1">
          <mxGeometry x="150" y="220" width="100" height="40" as="geometry" />
        </mxCell>
        <mxCell id="wSRYckMk192CzZlXgmqv-53" value="description" style="ellipse;whiteSpace=wrap;html=1;align=center;" vertex="1" parent="1">
          <mxGeometry x="640" y="210" width="100" height="40" as="geometry" />
        </mxCell>
        <mxCell id="wSRYckMk192CzZlXgmqv-54" value="title" style="ellipse;whiteSpace=wrap;html=1;align=center;" vertex="1" parent="1">
          <mxGeometry x="620" y="260" width="100" height="40" as="geometry" />
        </mxCell>
        <mxCell id="wSRYckMk192CzZlXgmqv-58" value="" style="endArrow=none;html=1;rounded=0;entryX=1;entryY=0;entryDx=0;entryDy=0;exitX=0;exitY=0.5;exitDx=0;exitDy=0;" edge="1" parent="1" source="wSRYckMk192CzZlXgmqv-53" target="wSRYckMk192CzZlXgmqv-61">
          <mxGeometry relative="1" as="geometry">
            <mxPoint x="340" y="240" as="sourcePoint" />
            <mxPoint x="685.3553390593274" y="245.85786437626894" as="targetPoint" />
          </mxGeometry>
        </mxCell>
        <mxCell id="wSRYckMk192CzZlXgmqv-59" value="" style="endArrow=none;html=1;rounded=0;entryX=1;entryY=1;entryDx=0;entryDy=0;exitX=0;exitY=0.5;exitDx=0;exitDy=0;" edge="1" parent="1" source="wSRYckMk192CzZlXgmqv-54" target="wSRYckMk192CzZlXgmqv-61">
          <mxGeometry relative="1" as="geometry">
            <mxPoint x="730" y="250" as="sourcePoint" />
            <mxPoint x="685.3553390593274" y="274.14213562373095" as="targetPoint" />
          </mxGeometry>
        </mxCell>
        <mxCell id="wSRYckMk192CzZlXgmqv-60" value="sound_sensitivity&lt;div&gt;(boolean)&lt;/div&gt;" style="ellipse;whiteSpace=wrap;html=1;align=center;" vertex="1" parent="1">
          <mxGeometry x="230" y="260" width="100" height="40" as="geometry" />
        </mxCell>
        <mxCell id="wSRYckMk192CzZlXgmqv-61" value="other_event" style="ellipse;shape=doubleEllipse;margin=3;whiteSpace=wrap;html=1;align=center;" vertex="1" parent="1">
          <mxGeometry x="520" y="220" width="100" height="40" as="geometry" />
        </mxCell>
        <mxCell id="wSRYckMk192CzZlXgmqv-62" value="start_date" style="ellipse;whiteSpace=wrap;html=1;align=center;" vertex="1" parent="1">
          <mxGeometry x="30" y="500" width="100" height="40" as="geometry" />
        </mxCell>
        <mxCell id="wSRYckMk192CzZlXgmqv-63" value="end_date" style="ellipse;whiteSpace=wrap;html=1;align=center;" vertex="1" parent="1">
          <mxGeometry x="150" y="500" width="100" height="40" as="geometry" />
        </mxCell>
        <mxCell id="wSRYckMk192CzZlXgmqv-65" value="severity&lt;div&gt;(int 0 to 5)&lt;/div&gt;" style="ellipse;whiteSpace=wrap;html=1;align=center;" vertex="1" parent="1">
          <mxGeometry x="235" y="460" width="100" height="40" as="geometry" />
        </mxCell>
        <mxCell id="wSRYckMk192CzZlXgmqv-66" value="potential_triggers" style="ellipse;whiteSpace=wrap;html=1;align=center;" vertex="1" parent="1">
          <mxGeometry x="235" y="400" width="100" height="40" as="geometry" />
        </mxCell>
        <mxCell id="wSRYckMk192CzZlXgmqv-67" value="date" style="ellipse;whiteSpace=wrap;html=1;align=center;" vertex="1" parent="1">
          <mxGeometry x="590" y="360" width="100" height="40" as="geometry" />
        </mxCell>
        <mxCell id="wSRYckMk192CzZlXgmqv-68" value="name" style="ellipse;whiteSpace=wrap;html=1;align=center;" vertex="1" parent="1">
          <mxGeometry x="560" y="410" width="100" height="40" as="geometry" />
        </mxCell>
        <mxCell id="wSRYckMk192CzZlXgmqv-69" value="description" style="ellipse;whiteSpace=wrap;html=1;align=center;" vertex="1" parent="1">
          <mxGeometry x="580" y="460" width="100" height="40" as="geometry" />
        </mxCell>
        <mxCell id="wSRYckMk192CzZlXgmqv-70" value="name" style="ellipse;whiteSpace=wrap;html=1;align=center;" vertex="1" parent="1">
          <mxGeometry x="550" y="530" width="100" height="40" as="geometry" />
        </mxCell>
        <mxCell id="wSRYckMk192CzZlXgmqv-71" value="date" style="ellipse;whiteSpace=wrap;html=1;align=center;" vertex="1" parent="1">
          <mxGeometry x="550" y="580" width="100" height="40" as="geometry" />
        </mxCell>
        <mxCell id="wSRYckMk192CzZlXgmqv-72" value="quantity" style="ellipse;whiteSpace=wrap;html=1;align=center;" vertex="1" parent="1">
          <mxGeometry x="650" y="610" width="100" height="40" as="geometry" />
        </mxCell>
        <mxCell id="wSRYckMk192CzZlXgmqv-75" value="Medication" style="rounded=0;whiteSpace=wrap;html=1;" vertex="1" parent="1">
          <mxGeometry x="70" y="620" width="120" height="60" as="geometry" />
        </mxCell>
        <mxCell id="wSRYckMk192CzZlXgmqv-76" value="name" style="ellipse;whiteSpace=wrap;html=1;align=center;" vertex="1" parent="1">
          <mxGeometry x="210" y="580" width="100" height="40" as="geometry" />
        </mxCell>
        <mxCell id="wSRYckMk192CzZlXgmqv-77" value="quantity" style="ellipse;whiteSpace=wrap;html=1;align=center;" vertex="1" parent="1">
          <mxGeometry x="220" y="630" width="100" height="40" as="geometry" />
        </mxCell>
        <mxCell id="wSRYckMk192CzZlXgmqv-78" value="medication_taken" style="ellipse;shape=doubleEllipse;margin=3;whiteSpace=wrap;html=1;align=center;" vertex="1" parent="1">
          <mxGeometry x="460" y="260" width="100" height="40" as="geometry" />
        </mxCell>
        <mxCell id="wSRYckMk192CzZlXgmqv-79" value="type&lt;div&gt;(preventative,&lt;/div&gt;&lt;div&gt;rescue, other)&lt;/div&gt;" style="ellipse;whiteSpace=wrap;html=1;align=center;" vertex="1" parent="1">
          <mxGeometry x="210" y="680" width="100" height="40" as="geometry" />
        </mxCell>
        <mxCell id="wSRYckMk192CzZlXgmqv-80" value="medication_used" style="ellipse;whiteSpace=wrap;html=1;align=center;" vertex="1" parent="1">
          <mxGeometry x="160" y="360" width="100" height="40" as="geometry" />
        </mxCell>
        <mxCell id="wSRYckMk192CzZlXgmqv-81" value="efficacy" style="ellipse;whiteSpace=wrap;html=1;align=center;" vertex="1" parent="1">
          <mxGeometry x="170" y="310" width="100" height="40" as="geometry" />
        </mxCell>
        <mxCell id="wSRYckMk192CzZlXgmqv-82" value="" style="endArrow=none;html=1;rounded=0;exitX=0.5;exitY=0;exitDx=0;exitDy=0;entryX=0.5;entryY=1;entryDx=0;entryDy=0;" edge="1" parent="1" source="wSRYckMk192CzZlXgmqv-80" target="wSRYckMk192CzZlXgmqv-81">
          <mxGeometry relative="1" as="geometry">
            <mxPoint x="80" y="340" as="sourcePoint" />
            <mxPoint x="240" y="340" as="targetPoint" />
          </mxGeometry>
        </mxCell>
        <mxCell id="wSRYckMk192CzZlXgmqv-84" value="" style="endArrow=none;html=1;rounded=0;exitX=0.5;exitY=0;exitDx=0;exitDy=0;entryX=0;entryY=1;entryDx=0;entryDy=0;" edge="1" parent="1" source="wSRYckMk192CzZlXgmqv-36" target="wSRYckMk192CzZlXgmqv-80">
          <mxGeometry relative="1" as="geometry">
            <mxPoint x="220" y="370" as="sourcePoint" />
            <mxPoint x="230" y="360" as="targetPoint" />
          </mxGeometry>
        </mxCell>
        <mxCell id="wSRYckMk192CzZlXgmqv-85" value="" style="endArrow=none;html=1;rounded=0;exitX=1;exitY=0.5;exitDx=0;exitDy=0;entryX=0;entryY=1;entryDx=0;entryDy=0;" edge="1" parent="1" source="wSRYckMk192CzZlXgmqv-36" target="wSRYckMk192CzZlXgmqv-66">
          <mxGeometry relative="1" as="geometry">
            <mxPoint x="230" y="380" as="sourcePoint" />
            <mxPoint x="240" y="370" as="targetPoint" />
          </mxGeometry>
        </mxCell>
        <mxCell id="wSRYckMk192CzZlXgmqv-86" value="" style="endArrow=none;html=1;rounded=0;exitX=1;exitY=0.75;exitDx=0;exitDy=0;entryX=0;entryY=0;entryDx=0;entryDy=0;" edge="1" parent="1" source="wSRYckMk192CzZlXgmqv-36" target="wSRYckMk192CzZlXgmqv-65">
          <mxGeometry relative="1" as="geometry">
            <mxPoint x="240" y="390" as="sourcePoint" />
            <mxPoint x="250" y="380" as="targetPoint" />
          </mxGeometry>
        </mxCell>
        <mxCell id="wSRYckMk192CzZlXgmqv-87" value="" style="endArrow=none;html=1;rounded=0;exitX=0.75;exitY=1;exitDx=0;exitDy=0;entryX=0.5;entryY=0;entryDx=0;entryDy=0;" edge="1" parent="1" source="wSRYckMk192CzZlXgmqv-36" target="wSRYckMk192CzZlXgmqv-63">
          <mxGeometry relative="1" as="geometry">
            <mxPoint x="250" y="400" as="sourcePoint" />
            <mxPoint x="260" y="390" as="targetPoint" />
          </mxGeometry>
        </mxCell>
        <mxCell id="wSRYckMk192CzZlXgmqv-88" value="" style="endArrow=none;html=1;rounded=0;exitX=0.25;exitY=1;exitDx=0;exitDy=0;entryX=0.5;entryY=0;entryDx=0;entryDy=0;" edge="1" parent="1" source="wSRYckMk192CzZlXgmqv-36" target="wSRYckMk192CzZlXgmqv-62">
          <mxGeometry relative="1" as="geometry">
            <mxPoint x="260" y="410" as="sourcePoint" />
            <mxPoint x="270" y="400" as="targetPoint" />
          </mxGeometry>
        </mxCell>
        <mxCell id="wSRYckMk192CzZlXgmqv-89" value="" style="endArrow=none;html=1;rounded=0;exitX=1;exitY=0.25;exitDx=0;exitDy=0;entryX=0;entryY=1;entryDx=0;entryDy=0;" edge="1" parent="1" source="wSRYckMk192CzZlXgmqv-75" target="wSRYckMk192CzZlXgmqv-76">
          <mxGeometry relative="1" as="geometry">
            <mxPoint x="270" y="420" as="sourcePoint" />
            <mxPoint x="280" y="410" as="targetPoint" />
          </mxGeometry>
        </mxCell>
        <mxCell id="wSRYckMk192CzZlXgmqv-90" value="" style="endArrow=none;html=1;rounded=0;exitX=1;exitY=0.5;exitDx=0;exitDy=0;entryX=0;entryY=0.5;entryDx=0;entryDy=0;" edge="1" parent="1" source="wSRYckMk192CzZlXgmqv-75" target="wSRYckMk192CzZlXgmqv-77">
          <mxGeometry relative="1" as="geometry">
            <mxPoint x="280" y="430" as="sourcePoint" />
            <mxPoint x="290" y="420" as="targetPoint" />
          </mxGeometry>
        </mxCell>
        <mxCell id="wSRYckMk192CzZlXgmqv-91" value="" style="endArrow=none;html=1;rounded=0;exitX=1;exitY=0.75;exitDx=0;exitDy=0;entryX=0;entryY=0;entryDx=0;entryDy=0;" edge="1" parent="1" source="wSRYckMk192CzZlXgmqv-75" target="wSRYckMk192CzZlXgmqv-79">
          <mxGeometry relative="1" as="geometry">
            <mxPoint x="290" y="440" as="sourcePoint" />
            <mxPoint x="300" y="430" as="targetPoint" />
          </mxGeometry>
        </mxCell>
        <mxCell id="wSRYckMk192CzZlXgmqv-92" value="" style="endArrow=none;html=1;rounded=0;exitX=0;exitY=0.25;exitDx=0;exitDy=0;entryX=1;entryY=1;entryDx=0;entryDy=0;" edge="1" parent="1" source="wSRYckMk192CzZlXgmqv-38" target="wSRYckMk192CzZlXgmqv-67">
          <mxGeometry relative="1" as="geometry">
            <mxPoint x="300" y="450" as="sourcePoint" />
            <mxPoint x="310" y="440" as="targetPoint" />
          </mxGeometry>
        </mxCell>
        <mxCell id="wSRYckMk192CzZlXgmqv-93" value="" style="endArrow=none;html=1;rounded=0;exitX=0;exitY=0.5;exitDx=0;exitDy=0;entryX=1;entryY=0.5;entryDx=0;entryDy=0;" edge="1" parent="1" source="wSRYckMk192CzZlXgmqv-38" target="wSRYckMk192CzZlXgmqv-68">
          <mxGeometry relative="1" as="geometry">
            <mxPoint x="310" y="460" as="sourcePoint" />
            <mxPoint x="320" y="450" as="targetPoint" />
          </mxGeometry>
        </mxCell>
        <mxCell id="wSRYckMk192CzZlXgmqv-94" value="" style="endArrow=none;html=1;rounded=0;exitX=1;exitY=0;exitDx=0;exitDy=0;entryX=0;entryY=0.75;entryDx=0;entryDy=0;" edge="1" parent="1" source="wSRYckMk192CzZlXgmqv-69" target="wSRYckMk192CzZlXgmqv-38">
          <mxGeometry relative="1" as="geometry">
            <mxPoint x="320" y="470" as="sourcePoint" />
            <mxPoint x="330" y="460" as="targetPoint" />
          </mxGeometry>
        </mxCell>
        <mxCell id="wSRYckMk192CzZlXgmqv-95" value="" style="endArrow=none;html=1;rounded=0;exitX=0.25;exitY=1;exitDx=0;exitDy=0;entryX=0.5;entryY=0;entryDx=0;entryDy=0;" edge="1" parent="1" source="wSRYckMk192CzZlXgmqv-40" target="wSRYckMk192CzZlXgmqv-72">
          <mxGeometry relative="1" as="geometry">
            <mxPoint x="330" y="480" as="sourcePoint" />
            <mxPoint x="340" y="470" as="targetPoint" />
          </mxGeometry>
        </mxCell>
        <mxCell id="wSRYckMk192CzZlXgmqv-96" value="" style="endArrow=none;html=1;rounded=0;exitX=1;exitY=0;exitDx=0;exitDy=0;entryX=0;entryY=0.75;entryDx=0;entryDy=0;" edge="1" parent="1" source="wSRYckMk192CzZlXgmqv-71" target="wSRYckMk192CzZlXgmqv-40">
          <mxGeometry relative="1" as="geometry">
            <mxPoint x="340" y="490" as="sourcePoint" />
            <mxPoint x="350" y="480" as="targetPoint" />
          </mxGeometry>
        </mxCell>
        <mxCell id="wSRYckMk192CzZlXgmqv-97" value="" style="endArrow=none;html=1;rounded=0;exitX=1;exitY=0.5;exitDx=0;exitDy=0;entryX=0;entryY=0.5;entryDx=0;entryDy=0;" edge="1" parent="1" source="wSRYckMk192CzZlXgmqv-70" target="wSRYckMk192CzZlXgmqv-40">
          <mxGeometry relative="1" as="geometry">
            <mxPoint x="350" y="500" as="sourcePoint" />
            <mxPoint x="360" y="490" as="targetPoint" />
          </mxGeometry>
        </mxCell>
        <mxCell id="wSRYckMk192CzZlXgmqv-98" value="" style="endArrow=none;html=1;rounded=0;exitX=0;exitY=0;exitDx=0;exitDy=0;entryX=0.75;entryY=1;entryDx=0;entryDy=0;" edge="1" parent="1" source="wSRYckMk192CzZlXgmqv-78" target="wSRYckMk192CzZlXgmqv-37">
          <mxGeometry relative="1" as="geometry">
            <mxPoint x="360" y="510" as="sourcePoint" />
            <mxPoint x="370" y="500" as="targetPoint" />
          </mxGeometry>
        </mxCell>
        <mxCell id="wSRYckMk192CzZlXgmqv-99" value="" style="endArrow=none;html=1;rounded=0;exitX=0;exitY=0.5;exitDx=0;exitDy=0;entryX=1;entryY=1;entryDx=0;entryDy=0;" edge="1" parent="1" source="wSRYckMk192CzZlXgmqv-61" target="wSRYckMk192CzZlXgmqv-37">
          <mxGeometry relative="1" as="geometry">
            <mxPoint x="370" y="520" as="sourcePoint" />
            <mxPoint x="380" y="510" as="targetPoint" />
          </mxGeometry>
        </mxCell>
        <mxCell id="wSRYckMk192CzZlXgmqv-100" value="" style="endArrow=none;html=1;rounded=0;exitX=0;exitY=0.5;exitDx=0;exitDy=0;entryX=1;entryY=0.75;entryDx=0;entryDy=0;" edge="1" parent="1" source="wSRYckMk192CzZlXgmqv-49" target="wSRYckMk192CzZlXgmqv-37">
          <mxGeometry relative="1" as="geometry">
            <mxPoint x="380" y="530" as="sourcePoint" />
            <mxPoint x="390" y="520" as="targetPoint" />
          </mxGeometry>
        </mxCell>
        <mxCell id="wSRYckMk192CzZlXgmqv-101" value="" style="endArrow=none;html=1;rounded=0;exitX=0;exitY=0.5;exitDx=0;exitDy=0;entryX=1;entryY=0.5;entryDx=0;entryDy=0;" edge="1" parent="1" source="wSRYckMk192CzZlXgmqv-46" target="wSRYckMk192CzZlXgmqv-37">
          <mxGeometry relative="1" as="geometry">
            <mxPoint x="390" y="540" as="sourcePoint" />
            <mxPoint x="400" y="530" as="targetPoint" />
          </mxGeometry>
        </mxCell>
        <mxCell id="wSRYckMk192CzZlXgmqv-102" value="" style="endArrow=none;html=1;rounded=0;exitX=0;exitY=1;exitDx=0;exitDy=0;entryX=1;entryY=0.25;entryDx=0;entryDy=0;" edge="1" parent="1" source="wSRYckMk192CzZlXgmqv-45" target="wSRYckMk192CzZlXgmqv-37">
          <mxGeometry relative="1" as="geometry">
            <mxPoint x="400" y="550" as="sourcePoint" />
            <mxPoint x="410" y="540" as="targetPoint" />
          </mxGeometry>
        </mxCell>
        <mxCell id="wSRYckMk192CzZlXgmqv-103" value="" style="endArrow=none;html=1;rounded=0;exitX=0.5;exitY=1;exitDx=0;exitDy=0;entryX=1;entryY=0;entryDx=0;entryDy=0;" edge="1" parent="1" source="wSRYckMk192CzZlXgmqv-44" target="wSRYckMk192CzZlXgmqv-37">
          <mxGeometry relative="1" as="geometry">
            <mxPoint x="410" y="560" as="sourcePoint" />
            <mxPoint x="420" y="550" as="targetPoint" />
          </mxGeometry>
        </mxCell>
        <mxCell id="wSRYckMk192CzZlXgmqv-104" value="" style="endArrow=none;html=1;rounded=0;exitX=0.5;exitY=1;exitDx=0;exitDy=0;entryX=0.5;entryY=0;entryDx=0;entryDy=0;" edge="1" parent="1" source="wSRYckMk192CzZlXgmqv-43" target="wSRYckMk192CzZlXgmqv-37">
          <mxGeometry relative="1" as="geometry">
            <mxPoint x="420" y="570" as="sourcePoint" />
            <mxPoint x="430" y="560" as="targetPoint" />
          </mxGeometry>
        </mxCell>
        <mxCell id="wSRYckMk192CzZlXgmqv-105" value="" style="endArrow=none;html=1;rounded=0;exitX=0.5;exitY=1;exitDx=0;exitDy=0;entryX=0.25;entryY=0;entryDx=0;entryDy=0;" edge="1" parent="1" source="wSRYckMk192CzZlXgmqv-42" target="wSRYckMk192CzZlXgmqv-37">
          <mxGeometry relative="1" as="geometry">
            <mxPoint x="430" y="580" as="sourcePoint" />
            <mxPoint x="440" y="570" as="targetPoint" />
          </mxGeometry>
        </mxCell>
        <mxCell id="wSRYckMk192CzZlXgmqv-106" value="" style="endArrow=none;html=1;rounded=0;exitX=1;exitY=1;exitDx=0;exitDy=0;entryX=0;entryY=0;entryDx=0;entryDy=0;" edge="1" parent="1" source="wSRYckMk192CzZlXgmqv-41" target="wSRYckMk192CzZlXgmqv-37">
          <mxGeometry relative="1" as="geometry">
            <mxPoint x="440" y="590" as="sourcePoint" />
            <mxPoint x="450" y="580" as="targetPoint" />
          </mxGeometry>
        </mxCell>
        <mxCell id="wSRYckMk192CzZlXgmqv-107" value="" style="endArrow=none;html=1;rounded=0;exitX=1;exitY=0.5;exitDx=0;exitDy=0;entryX=0;entryY=0.25;entryDx=0;entryDy=0;" edge="1" parent="1" source="wSRYckMk192CzZlXgmqv-47" target="wSRYckMk192CzZlXgmqv-37">
          <mxGeometry relative="1" as="geometry">
            <mxPoint x="450" y="600" as="sourcePoint" />
            <mxPoint x="460" y="590" as="targetPoint" />
          </mxGeometry>
        </mxCell>
        <mxCell id="wSRYckMk192CzZlXgmqv-108" value="" style="endArrow=none;html=1;rounded=0;exitX=1;exitY=0.5;exitDx=0;exitDy=0;entryX=0;entryY=0.75;entryDx=0;entryDy=0;" edge="1" parent="1" source="wSRYckMk192CzZlXgmqv-48" target="wSRYckMk192CzZlXgmqv-37">
          <mxGeometry relative="1" as="geometry">
            <mxPoint x="460" y="610" as="sourcePoint" />
            <mxPoint x="470" y="600" as="targetPoint" />
          </mxGeometry>
        </mxCell>
        <mxCell id="wSRYckMk192CzZlXgmqv-109" value="" style="endArrow=none;html=1;rounded=0;exitX=1;exitY=0;exitDx=0;exitDy=0;entryX=0;entryY=1;entryDx=0;entryDy=0;" edge="1" parent="1" source="wSRYckMk192CzZlXgmqv-50" target="wSRYckMk192CzZlXgmqv-37">
          <mxGeometry relative="1" as="geometry">
            <mxPoint x="470" y="620" as="sourcePoint" />
            <mxPoint x="480" y="610" as="targetPoint" />
          </mxGeometry>
        </mxCell>
        <mxCell id="wSRYckMk192CzZlXgmqv-110" value="" style="endArrow=none;html=1;rounded=0;exitX=0.5;exitY=0;exitDx=0;exitDy=0;entryX=0.25;entryY=1;entryDx=0;entryDy=0;" edge="1" parent="1" source="wSRYckMk192CzZlXgmqv-60" target="wSRYckMk192CzZlXgmqv-37">
          <mxGeometry relative="1" as="geometry">
            <mxPoint x="480" y="630" as="sourcePoint" />
            <mxPoint x="490" y="620" as="targetPoint" />
          </mxGeometry>
        </mxCell>
      </root>
    </mxGraphModel>
  </diagram>
</mxfile>
